<svg xmlns="http://www.w3.org/2000/svg" xmlns:xlink="http://www.w3.org/1999/xlink" width="188" zoomAndPan="magnify" viewBox="0 0 141.75 141.749996" height="188" preserveAspectRatio="xMidYMid meet" version="1.0"><defs><g/></defs><g fill="#ff3131" fill-opacity="1"><g transform="translate(4.620462, 89.249491)"><g><path d="M 37.546875 0 L 42.949219 -5.402344 L 42.949219 -37.816406 L 13.507812 -37.816406 L 13.507812 -27.011719 L 32.144531 -27.011719 L 32.144531 -10.804688 L 13.507812 -10.804688 L 13.507812 -16.207031 L 2.703125 -16.207031 L 2.703125 -5.402344 L 8.105469 0 Z M 9.941406 -4.320312 L 7.023438 -7.292969 L 7.023438 -11.886719 L 9.183594 -11.886719 L 9.183594 -6.484375 L 36.46875 -6.484375 L 36.46875 -31.335938 L 17.828125 -31.335938 L 17.828125 -33.496094 L 38.628906 -33.496094 L 38.628906 -7.238281 L 35.710938 -4.320312 Z M 9.941406 -4.320312 "/></g></g></g><g fill="#ff3131" fill-opacity="1"><g transform="translate(50.272157, 89.249491)"><g><path d="M 25.988281 0 L 25.988281 -27.011719 L 40.898438 -27.011719 L 40.898438 -37.816406 L 0.269531 -37.816406 L 0.269531 -27.011719 L 15.179688 -27.011719 L 15.179688 0 Z M 19.503906 -4.320312 L 19.503906 -31.335938 L 4.59375 -31.335938 L 4.59375 -33.496094 L 36.574219 -33.496094 L 36.574219 -31.335938 L 21.664062 -31.335938 L 21.664062 -4.320312 Z M 19.503906 -4.320312 "/></g></g></g><g fill="#ff3131" fill-opacity="1"><g transform="translate(91.439719, 89.249491)"><g><path d="M 37.546875 0 L 42.949219 -5.402344 L 42.949219 -24.3125 L 24.042969 -24.3125 L 24.042969 -13.507812 L 32.144531 -13.507812 L 32.144531 -10.804688 L 13.507812 -10.804688 L 13.507812 -27.011719 L 38.898438 -27.011719 L 38.898438 -37.816406 L 8.105469 -37.816406 L 2.703125 -32.414062 L 2.703125 -5.402344 L 8.105469 0 Z M 9.941406 -4.320312 L 7.023438 -7.292969 L 7.023438 -30.578125 L 9.941406 -33.496094 L 34.578125 -33.496094 L 34.578125 -31.335938 L 9.183594 -31.335938 L 9.183594 -6.484375 L 36.46875 -6.484375 L 36.46875 -17.828125 L 28.363281 -17.828125 L 28.363281 -19.988281 L 38.628906 -19.988281 L 38.628906 -7.238281 L 35.710938 -4.320312 Z M 9.941406 -4.320312 "/></g></g></g></svg>